# xmcd CD database file
#
# Track frame offsets:
#	150
#	25876
#	50477
#	70803
#	93231
#	114007
#	142207
#	160057
#	179608
#	205943
#	232794
#
# Disc length: 3377 seconds
#
# Revision: 0
# Processed by: cddbd v1.5.1PL0 Copyright (c) Steve Scherf et al.
# Submitted via: CDex 1.51
#
DISCID=8e0d2f0b
DTITLE=まゆ - ひとやすみ
DYEAR=2005
DGENRE=Japanese Pop
TTITLE0=はぴねす！
TTITLE1=いいな(まりものうた)
TTITLE2=午後の日曜日
TTITLE3=ひとやすみ
TTITLE4=自転車
TTITLE5=小さな私
TTITLE6=わたゆき
TTITLE7=かまってもっと！
TTITLE8=ゆっくりと
TTITLE9=やさしい風
TTITLE10=ふたりでいようね
EXTD=YEAR: 2005
EXTT0=
EXTT1=
EXTT2=
EXTT3=
EXTT4=
EXTT5=
EXTT6=
EXTT7=
EXTT8=
EXTT9=
EXTT10=
PLAYORDER=
